<?xml version="1.0" encoding="utf-8"?>
<!-- Generator: Adobe Illustrator 16.0.0, SVG Export Plug-In . SVG Version: 6.00 Build 0)  -->
<!DOCTYPE svg PUBLIC "-//W3C//DTD SVG 1.1//EN" "http://www.w3.org/Graphics/SVG/1.1/DTD/svg11.dtd">
<svg version="1.1" id="Layer_1" xmlns="http://www.w3.org/2000/svg" xmlns:xlink="http://www.w3.org/1999/xlink" x="0px" y="0px"
	 width="40px" height="40px" viewBox="0 0 40 40" style="enable-background:new 0 0 40 40;" xml:space="preserve">
<style type="text/css">
<![CDATA[
	.st0{fill:none;stroke:#000000;stroke-miterlimit:10;}
	.st1{fill:#FFFFFF;stroke:#FFFFFF;stroke-miterlimit:10;}
]]>
</style>
<path class="st0" d="M0.813,15.75"/>
<g>
	<path class="st1" d="M20,4.75c-3.59,0-6.5,2.75-6.5,6.75h2.539c0.358,0,0.648,0.534,0.648,1s-0.29,1-0.648,1H13.5v2h2.539
		c0.358,0,0.648,0.534,0.648,1s-0.29,1-0.648,1H13.5v2h2.539c0.358,0,0.648,0.534,0.648,1c0,0.467-0.29,1-0.648,1H13.5V22
		c0,3.59,2.91,6.5,6.5,6.5s6.5-2.91,6.5-6.5V11C26.5,7.41,23.59,4.75,20,4.75z"/>
	<path class="st1" d="M12.375,16.625c0,0-2.125,11.563,7.625,13.375"/>
	<path class="st1" d="M27.805,16.625c0,0,2.125,11.563-7.625,13.375"/>
	<line class="st1" x1="20.18" y1="29.5" x2="20" y2="34.875"/>
	<line class="st1" x1="17" y1="34.5" x2="23" y2="34.5"/>
</g>
</svg>
